# xmcd
# Track frame offsets:
# 150
# 3272
# 17792
# 31355
# 45882
# 69590
# 80312
# 100282
# 119710
# 132970
# 152187
# 181500
# 198482
# 211350
# 225310
# 236145
#
# Disc length: 3424 seconds
# Revision: 10
# Processed by: cddbd v1.5.2PL0 Copyright (c) Steve Scherf et al.
# Submitted via: VisiTrax 2.10.0.248 - For more info visit www.synapsa.com
#
DISCID=c90d5e10
DTITLE=Various Artist - Essential Blues Disc 1
DYEAR=1995
DGENRE=Blues
TTITLE0=House of Blues - Intro
TTITLE1=Elmore James - Dust My Blues
TTITLE2=B.B. King - Three O'Clock Blues
TTITLE3=Howlin' Wolf - Killing Floor
TTITLE4=Koko Taylor - Stop Watching Your Enemies
TTITLE5=Junior Wells - Messin' With The Kid
TTITLE6=Clarence "Gatemouth" Brown - Better Off With The Blues
TTITLE7=Albert King - When You Walk Out The Door
TTITLE8=Sonny Boy Williamson - Don't Start Me Talkin'
TTITLE9=Rufus Thomas - Blues In The Basement
TTITLE10=Little Milton - Little Bluebird
TTITLE11=Lightnin' Hopkins - Mojo Hand
TTITLE12=Jimmy Reed - Big Boss Man
TTITLE13=John Lee Hooker - Boogie Chillen
TTITLE14=Bobby Bland - I'll Take Care Of You
TTITLE15=Otis Spann - Otis In The Dark
EXTD=YEAR: 1995
EXTT0=
EXTT1=
EXTT2=
EXTT3=
EXTT4=
EXTT5=
EXTT6=
EXTT7=
EXTT8=
EXTT9=
EXTT10=
EXTT11=
EXTT12=
EXTT13=
EXTT14=
EXTT15=
PLAYORDER=
